# xmcd
#
# Track frame offsets:
#	150
#	12926
#	35800
#	45150
#	58809
#	78793
#	92474
#	105793
#	121637
#	133602
#	156457
#	170347
#	188092
#	202517
#	227361
#	238764
#	255790
#	270675
#	285736
#	295491
#	314272
#
# Disc length: 4325 seconds
#
# Revision: 0
# Processed by: cddbd v1.5.1PL2 Copyright (c) Steve Scherf et al.
# Submitted via: dBpowerAMP V4.0
#
DISCID=0610e315
DTITLE=The Sommers Family Band - Just Because
DYEAR=1900
DGENRE=
TTITLE0=Little Maggie
TTITLE1=Angels Are Singing In Heaven Tonight
TTITLE2=Geordie
TTITLE3=Waiting For The Boatman
TTITLE4=Fifty Miles Of Elbow Room
TTITLE5=Think Of What You Have Done
TTITLE6=Jalapeno Flashback
TTITLE7=Anchored In Love
TTITLE8=Our Last Goodbye
TTITLE9=Omie Wise
TTITLE10=God's Not Dead
TTITLE11=Maury River Blues
TTITLE12=Prety Polly
TTITLE13=Midnight On The Stormy Deep
TTITLE14=Shake My Mother's Hand
TTITLE15=Gathering Flowers
TTITLE16=Orange Blossom Special
TTITLE17=Little Willie
TTITLE18=How Mountain Girls Can Love
TTITLE19=Walls Of Time
TTITLE20=Just Because
EXTD=Bluegrass
EXTT0=
EXTT1=
EXTT2=
EXTT3=
EXTT4=
EXTT5=
EXTT6=
EXTT7=
EXTT8=
EXTT9=
EXTT10=
EXTT11=
EXTT12=
EXTT13=
EXTT14=
EXTT15=
EXTT16=
EXTT17=
EXTT18=
EXTT19=
EXTT20=
PLAYORDER=
